<?xml version="1.0" encoding="utf-8"?>
<svg version="1.1" xmlns:xlink="http://www.w3.org/1999/xlink" width="12px" height="8px" xmlns="http://www.w3.org/2000/svg">
  <g transform="matrix(1 0 0 1 -133 -932 )">
    <path d="M 139 932  C 142.36 932  145 933.76  145 936  C 145 938.24  142.36 940  139 940  C 135.64 940  133 938.24  133 936  C 133 933.76  135.64 932  139 932  Z " fill-rule="nonzero" fill="#aaaaaa" stroke="none" />
    <path d="M 139 932.5  C 142.08 932.5  144.5 934.04  144.5 936  C 144.5 937.96  142.08 939.5  139 939.5  C 135.92 939.5  133.5 937.96  133.5 936  C 133.5 934.04  135.92 932.5  139 932.5  Z " stroke-width="1" stroke="#797979" fill="none" />
  </g>
</svg>