<?xml version="1.0" encoding="utf-8"?>
<svg version="1.1" xmlns:xlink="http://www.w3.org/1999/xlink" width="12px" height="13px" xmlns="http://www.w3.org/2000/svg">
  <g transform="matrix(1 0 0 1 -1104 -779 )">
    <path d="M 1110 779  C 1113.36 779  1116 781.86  1116 785.5  C 1116 789.14  1113.36 792  1110 792  C 1106.64 792  1104 789.14  1104 785.5  C 1104 781.86  1106.64 779  1110 779  Z " fill-rule="nonzero" fill="#7f7f7f" stroke="none" />
    <path d="M 1110 779.5  C 1113.08 779.5  1115.5 782.14  1115.5 785.5  C 1115.5 788.86  1113.08 791.5  1110 791.5  C 1106.92 791.5  1104.5 788.86  1104.5 785.5  C 1104.5 782.14  1106.92 779.5  1110 779.5  Z " stroke-width="1" stroke="#797979" fill="none" />
  </g>
</svg>