<?xml version="1.0" encoding="utf-8"?>
<svg version="1.1" xmlns:xlink="http://www.w3.org/1999/xlink" width="180px" height="158px" xmlns="http://www.w3.org/2000/svg">
  <g transform="matrix(1 0 0 1 -4284 -613 )">
    <path d="M 4463.5 644.6  C 4463.5 644.6  4463.5 739.4  4463.5 739.4  C 4463.5 756.997688888889  4423.60253164557 770.5  4374 770.5  C 4324.39746835443 770.5  4284.5 756.997688888889  4284.5 739.4  C 4284.5 739.4  4284.5 644.6  4284.5 644.6  C 4284.5 627.002311111111  4324.39746835443 613.5  4374 613.5  C 4423.60253164557 613.5  4463.5 627.002311111111  4463.5 644.6  Z " fill-rule="nonzero" fill="#ffffff" stroke="none" />
    <path d="M 4284.5 644.9  C 4284.5 627.316  4323.88 613.5  4374 613.5  C 4424.12 613.5  4463.5 627.316  4463.5 644.9  C 4463.5 644.9  4463.5 739.1  4463.5 739.1  C 4463.5 756.684  4424.12 770.5  4374 770.5  C 4323.88 770.5  4284.5 756.684  4284.5 739.1  C 4284.5 739.1  4284.5 644.9  4284.5 644.9  Z " stroke-width="1" stroke="#797979" fill="none" />
    <path d="M 4463.5 644.6  C 4463.5 662.016  4424.12 675.7  4374 675.7  C 4323.88 675.7  4284.5 662.016  4284.5 644.6  " stroke-width="1" stroke="#797979" fill="none" />
  </g>
</svg>