<?xml version="1.0" encoding="utf-8"?>
<svg version="1.1" xmlns:xlink="http://www.w3.org/1999/xlink" width="180px" height="158px" xmlns="http://www.w3.org/2000/svg">
  <g transform="matrix(1 0 0 1 -4280 -613 )">
    <path d="M 4459.5 644.6  C 4459.5 644.6  4459.5 739.4  4459.5 739.4  C 4459.5 756.997688888889  4419.60253164557 770.5  4370 770.5  C 4320.39746835443 770.5  4280.5 756.997688888889  4280.5 739.4  C 4280.5 739.4  4280.5 644.6  4280.5 644.6  C 4280.5 627.002311111111  4320.39746835443 613.5  4370 613.5  C 4419.60253164557 613.5  4459.5 627.002311111111  4459.5 644.6  Z " fill-rule="nonzero" fill="#ffffff" stroke="none" />
    <path d="M 4280.5 644.9  C 4280.5 627.316  4319.88 613.5  4370 613.5  C 4420.12 613.5  4459.5 627.316  4459.5 644.9  C 4459.5 644.9  4459.5 739.1  4459.5 739.1  C 4459.5 756.684  4420.12 770.5  4370 770.5  C 4319.88 770.5  4280.5 756.684  4280.5 739.1  C 4280.5 739.1  4280.5 644.9  4280.5 644.9  Z " stroke-width="1" stroke="#797979" fill="none" />
    <path d="M 4459.5 644.6  C 4459.5 662.016  4420.12 675.7  4370 675.7  C 4319.88 675.7  4280.5 662.016  4280.5 644.6  " stroke-width="1" stroke="#797979" fill="none" />
  </g>
</svg>