<?xml version="1.0" encoding="utf-8"?>
<svg version="1.1" xmlns:xlink="http://www.w3.org/1999/xlink" width="36px" height="39px" xmlns="http://www.w3.org/2000/svg">
  <g transform="matrix(1 0 0 1 -3815 -994 )">
    <path d="M 18 37.2589285714286  C 18.2307692307692 37.2589285714286  18.3461538461539 37.1428571428571  18.3461538461538 36.9107142857143  C 18.3461538461539 36.6785714285714  18.2307692307692 36.5625  18 36.5625  C 17.1490384615385 36.5625  16.4170673076923 36.2541852678571  15.8040865384615 35.6375558035714  C 15.1911057692308 35.0209263392857  14.8846153846154 34.2845982142857  14.8846153846154 33.4285714285714  C 14.8846153846154 33.1964285714286  14.7692307692308 33.0803571428571  14.5384615384615 33.0803571428571  C 14.3076923076923 33.0803571428571  14.1923076923077 33.1964285714286  14.1923076923077 33.4285714285714  C 14.1923076923077 34.4877232142857  14.5637019230769 35.3909040178571  15.3064903846154 36.1381138392857  C 16.0492788461538 36.8853236607143  16.9471153846154 37.2589285714286  18 37.2589285714286  Z M 34.03125 28.7276785714286  C 34.6225961538462 29.3950892857143  35.2788461538462 30.0334821428571  36 30.6428571428571  C 36 31.3973214285714  35.7259615384615 32.0502232142857  35.1778846153846 32.6015625  C 34.6298076923077 33.1529017857143  33.9807692307692 33.4285714285714  33.2307692307692 33.4285714285714  L 23.5384615384615 33.4285714285714  C 23.5384615384615 34.9665178571429  22.9975961538462 36.2795758928571  21.9158653846154 37.3677455357143  C 20.8341346153846 38.4559151785714  19.5288461538462 39  18 39  C 16.4711538461538 39  15.1658653846154 38.4559151785714  14.0841346153846 37.3677455357143  C 13.0024038461538 36.2795758928571  12.4615384615385 34.9665178571429  12.4615384615385 33.4285714285714  L 2.76923076923077 33.4285714285714  C 2.01923076923077 33.4285714285714  1.37019230769231 33.1529017857143  0.822115384615385 32.6015625  C 0.274038461538462 32.0502232142857  0 31.3973214285714  0 30.6428571428571  C 0.721153846153846 30.0334821428571  1.37740384615385 29.3950892857143  1.96875 28.7276785714286  C 2.56009615384615 28.0602678571429  3.17307692307692 27.193359375  3.80769230769231 26.126953125  C 4.44230769230769 25.060546875  4.97956730769231 23.9107142857143  5.41947115384615 22.6774553571429  C 5.859375 21.4441964285714  6.21995192307692 19.9497767857143  6.50120192307692 18.1941964285714  C 6.78245192307692 16.4386160714286  6.92307692307692 14.5524553571429  6.92307692307692 12.5357142857143  C 6.92307692307692 10.3303571428571  7.76682692307692 8.28097098214286  9.45432692307692 6.38755580357143  C 11.1418269230769 4.494140625  13.3557692307692 3.34430803571428  16.0961538461538 2.93805803571428  C 15.9807692307692 2.66238839285714  15.9230769230769 2.37946428571429  15.9230769230769 2.08928571428572  C 15.9230769230769 1.50892857142857  16.125 1.015625  16.5288461538462 0.609375  C 16.9326923076923 0.203125000000001  17.4230769230769 0  18 0  C 18.5769230769231 0  19.0673076923077 0.203125000000001  19.4711538461538 0.609375  C 19.875 1.015625  20.0769230769231 1.50892857142857  20.0769230769231 2.08928571428572  C 20.0769230769231 2.37946428571429  20.0192307692308 2.66238839285714  19.9038461538462 2.93805803571428  C 22.6442307692308 3.34430803571428  24.8581730769231 4.494140625  26.5456730769231 6.38755580357143  C 28.2331730769231 8.28097098214286  29.0769230769231 10.3303571428571  29.0769230769231 12.5357142857143  C 29.0769230769231 14.5524553571429  29.2175480769231 16.4386160714286  29.4987980769231 18.1941964285714  C 29.7800480769231 19.9497767857143  30.140625 21.4441964285714  30.5805288461538 22.6774553571429  C 31.0204326923077 23.9107142857143  31.5576923076923 25.060546875  32.1923076923077 26.126953125  C 32.8269230769231 27.193359375  33.4399038461539 28.0602678571429  34.03125 28.7276785714286  Z " fill-rule="nonzero" fill="#aaaaaa" stroke="none" transform="matrix(1 0 0 1 3815 994 )" />
  </g>
</svg>