<?xml version="1.0" encoding="utf-8"?>
<svg version="1.1" xmlns:xlink="http://www.w3.org/1999/xlink" width="40px" height="35px" xmlns="http://www.w3.org/2000/svg">
  <g transform="matrix(1 0 0 1 -3803 -415 )">
    <path d="M 14.9306930693069 30.01953125  L 30.5742574257426 16.640625  C 31.3795379537954 21.2760416666667  33.3465346534653 24.8958333333333  36.4752475247525 27.5  C 36.4752475247525 28.1770833333333  36.2244224422442 28.7630208333333  35.7227722772277 29.2578125  C 35.2211221122112 29.7526041666667  34.6270627062706 30  33.9405940594059 30  L 25.0693069306931 30  C 25.0693069306931 31.3802083333333  24.5742574257426 32.55859375  23.5841584158416 33.53515625  C 22.5940594059406 34.51171875  21.3993399339934 35  20 35  C 18.6006600660066 35  17.4092409240924 34.5149739583333  16.4257425742574 33.544921875  C 15.4422442244224 32.5748697916667  14.9438943894389 31.3997395833333  14.9306930693069 30.01953125  Z M 17.5346534653465 32.431640625  C 18.2145214521452 33.1022135416667  19.036303630363 33.4375  20 33.4375  C 20.2112211221122 33.4375  20.3168316831683 33.3333333333333  20.3168316831683 33.125  C 20.3168316831683 32.9166666666667  20.2112211221122 32.8125  20 32.8125  C 19.2211221122112 32.8125  18.5511551155116 32.5358072916667  17.990099009901 31.982421875  C 17.4290429042904 31.4290364583333  17.1485148514851 30.7682291666667  17.1485148514851 30  C 17.1485148514851 29.7916666666667  17.042904290429 29.6875  16.8316831683168 29.6875  C 16.6204620462046 29.6875  16.5148514851485 29.7916666666667  16.5148514851485 30  C 16.5148514851485 30.9505208333333  16.8547854785479 31.7610677083333  17.5346534653465 32.431640625  Z M 38.1782178217822 0.312499999999999  L 39.8415841584158 2.1875  C 39.947194719472 2.31770833333333  39.996699669967 2.470703125  39.990099009901 2.646484375  C 39.983498349835 2.822265625  39.9141914191419 2.96875  39.7821782178218 3.0859375  L 2.71287128712871 34.765625  C 2.58085808580858 34.8697916666667  2.42574257425743 34.9153645833333  2.24752475247525 34.90234375  C 2.06930693069307 34.8893229166667  1.92739273927393 34.8177083333333  1.82178217821782 34.6875  L 0.158415841584158 32.8125  C 0.0528052805280528 32.6822916666667  0.00330033003300332 32.529296875  0.0099009900990099 32.353515625  C 0.0165016501650165 32.177734375  0.0858085808580859 32.0377604166667  0.217821782178218 31.93359375  L 3.9009900990099 28.7890625  C 3.65016501650165 28.3723958333333  3.52475247524752 27.9427083333333  3.52475247524752 27.5  C 4.18481848184818 26.953125  4.78547854785479 26.3802083333333  5.32673267326733 25.78125  C 5.86798679867987 25.1822916666667  6.42904290429043 24.404296875  7.00990099009901 23.447265625  C 7.59075907590759 22.490234375  8.08250825082508 21.4583333333333  8.48514851485148 20.3515625  C 8.88778877887789 19.2447916666667  9.21782178217822 17.9036458333333  9.47524752475248 16.328125  C 9.73267326732673 14.7526041666667  9.86138613861386 13.0598958333333  9.86138613861386 11.25  C 9.86138613861386 9.27083333333333  10.6336633663366 7.431640625  12.1782178217822 5.732421875  C 13.7227722772277 4.033203125  15.7491749174918 3.00130208333333  18.2574257425743 2.63671875  C 18.1518151815182 2.38932291666666  18.0990099009901 2.13541666666667  18.0990099009901 1.875  C 18.0990099009901 1.35416666666667  18.2838283828383 0.911458333333332  18.6534653465347 0.546875  C 19.023102310231 0.182291666666668  19.4719471947195 0  20 0  C 20.5280528052805 0  20.976897689769 0.182291666666668  21.3465346534653 0.546875  C 21.7161716171617 0.911458333333332  21.9009900990099 1.35416666666667  21.9009900990099 1.875  C 21.9009900990099 2.13541666666667  21.8481848184819 2.38932291666666  21.7425742574257 2.63671875  C 23.3795379537954 2.87109375  24.8250825082508 3.408203125  26.0792079207921 4.248046875  C 27.3333333333333 5.087890625  28.3102310231023 6.11328125  29.009900990099 7.32421875  L 37.2871287128713 0.234375000000001  C 37.4191419141914 0.130208333333331  37.5742574257426 0.0846354166666669  37.7524752475247 0.0976562500000011  C 37.9306930693069 0.110677083333331  38.0726072607261 0.182291666666664  38.1782178217822 0.312499999999999  Z " fill-rule="nonzero" fill="#aaaaaa" stroke="none" transform="matrix(1 0 0 1 3803 415 )" />
  </g>
</svg>