<?xml version="1.0" encoding="utf-8"?>
<svg version="1.1" xmlns:xlink="http://www.w3.org/1999/xlink" width="18px" height="18px" xmlns="http://www.w3.org/2000/svg">
  <g transform="matrix(1 0 0 1 -2623 -614 )">
    <path d="M 2632 614  C 2637.04 614  2641 617.96  2641 623  C 2641 628.04  2637.04 632  2632 632  C 2626.96 632  2623 628.04  2623 623  C 2623 617.96  2626.96 614  2632 614  Z " fill-rule="nonzero" fill="#ffffff" stroke="none" />
    <path d="M 2632 614.5  C 2636.76 614.5  2640.5 618.24  2640.5 623  C 2640.5 627.76  2636.76 631.5  2632 631.5  C 2627.24 631.5  2623.5 627.76  2623.5 623  C 2623.5 618.24  2627.24 614.5  2632 614.5  Z " stroke-width="1" stroke="#797979" fill="none" />
  </g>
</svg>