<?xml version="1.0" encoding="utf-8"?>
<svg version="1.1" xmlns:xlink="http://www.w3.org/1999/xlink" width="10px" height="10px" xmlns="http://www.w3.org/2000/svg">
  <g transform="matrix(1 0 0 1 -125 -536 )">
    <path d="M 130 536  C 132.8 536  135 538.2  135 541  C 135 543.8  132.8 546  130 546  C 127.2 546  125 543.8  125 541  C 125 538.2  127.2 536  130 536  Z " fill-rule="nonzero" fill="#ffffff" stroke="none" />
    <path d="M 130 536.5  C 132.52 536.5  134.5 538.48  134.5 541  C 134.5 543.52  132.52 545.5  130 545.5  C 127.48 545.5  125.5 543.52  125.5 541  C 125.5 538.48  127.48 536.5  130 536.5  Z " stroke-width="1" stroke="#797979" fill="none" />
  </g>
</svg>