<?xml version="1.0" encoding="utf-8"?>
<svg version="1.1" xmlns:xlink="http://www.w3.org/1999/xlink" width="12px" height="13px" xmlns="http://www.w3.org/2000/svg">
  <g transform="matrix(1 0 0 1 -2282 -2601 )">
    <path d="M 2288 2601  C 2291.36 2601  2294 2603.86  2294 2607.5  C 2294 2611.14  2291.36 2614  2288 2614  C 2284.64 2614  2282 2611.14  2282 2607.5  C 2282 2603.86  2284.64 2601  2288 2601  Z " fill-rule="nonzero" fill="#000000" stroke="none" />
    <path d="M 2288 2601.5  C 2291.08 2601.5  2293.5 2604.14  2293.5 2607.5  C 2293.5 2610.86  2291.08 2613.5  2288 2613.5  C 2284.92 2613.5  2282.5 2610.86  2282.5 2607.5  C 2282.5 2604.14  2284.92 2601.5  2288 2601.5  Z " stroke-width="1" stroke="#797979" fill="none" />
  </g>
</svg>