<?xml version="1.0" encoding="utf-8"?>
<svg version="1.1" xmlns:xlink="http://www.w3.org/1999/xlink" width="16px" height="16px" xmlns="http://www.w3.org/2000/svg">
  <g transform="matrix(1 0 0 1 -813 -364 )">
    <path d="M 821 364  C 825.48 364  829 367.52  829 372  C 829 376.48  825.48 380  821 380  C 816.52 380  813 376.48  813 372  C 813 367.52  816.52 364  821 364  Z " fill-rule="nonzero" fill="#ffffff" stroke="none" />
    <path d="M 821 364.5  C 825.2 364.5  828.5 367.8  828.5 372  C 828.5 376.2  825.2 379.5  821 379.5  C 816.8 379.5  813.5 376.2  813.5 372  C 813.5 367.8  816.8 364.5  821 364.5  Z " stroke-width="1" stroke="#797979" fill="none" />
  </g>
</svg>