<?xml version="1.0" encoding="utf-8"?>
<svg version="1.1" xmlns:xlink="http://www.w3.org/1999/xlink" width="30px" height="30px" xmlns="http://www.w3.org/2000/svg">
  <g transform="matrix(1 0 0 1 -2585 -2463 )">
    <path d="M 2600 2463  C 2608.4 2463  2615 2469.6  2615 2478  C 2615 2486.4  2608.4 2493  2600 2493  C 2591.6 2493  2585 2486.4  2585 2478  C 2585 2469.6  2591.6 2463  2600 2463  Z " fill-rule="nonzero" fill="#ffffff" stroke="none" />
    <path d="M 2600 2463.5  C 2608.12 2463.5  2614.5 2469.88  2614.5 2478  C 2614.5 2486.12  2608.12 2492.5  2600 2492.5  C 2591.88 2492.5  2585.5 2486.12  2585.5 2478  C 2585.5 2469.88  2591.88 2463.5  2600 2463.5  Z " stroke-width="1" stroke="#797979" fill="none" />
  </g>
</svg>