<?xml version="1.0" encoding="utf-8"?>
<svg version="1.1" xmlns:xlink="http://www.w3.org/1999/xlink" width="37px" height="37px" xmlns="http://www.w3.org/2000/svg">
  <g transform="matrix(1 0 0 1 -2533 -2586 )">
    <path d="M 2551.5 2586  C 2561.86 2586  2570 2594.14  2570 2604.5  C 2570 2614.86  2561.86 2623  2551.5 2623  C 2541.14 2623  2533 2614.86  2533 2604.5  C 2533 2594.14  2541.14 2586  2551.5 2586  Z " fill-rule="nonzero" fill="#ffffff" stroke="none" />
    <path d="M 2551.5 2586.5  C 2561.58 2586.5  2569.5 2594.42  2569.5 2604.5  C 2569.5 2614.58  2561.58 2622.5  2551.5 2622.5  C 2541.42 2622.5  2533.5 2614.58  2533.5 2604.5  C 2533.5 2594.42  2541.42 2586.5  2551.5 2586.5  Z " stroke-width="1" stroke="#797979" fill="none" />
  </g>
</svg>