<?xml version="1.0" encoding="utf-8"?>
<svg version="1.1" xmlns:xlink="http://www.w3.org/1999/xlink" width="82px" height="6px" preserveAspectRatio="xMinYMid meet" viewBox="128 3231  82 4" xmlns="http://www.w3.org/2000/svg">
  <g transform="matrix(0.798635510047274 0.601815023152076 -0.601815023152077 0.798635510047332 1979.69856865268 549.304657104275 )">
    <path d="M 0.72972972972957 111.079593354823  L 61.5405405405404 64.6067443590379  L 116.945945945946 129.099677659311  L 171 86.5  L 227.756756756757 86.5  L 289.918918918919 45.6382345648401  L 348.027027027027 57.9677659310687  L 406.135135135135 106.337465906273  L 460.189189189189 39.9476816265807  L 511.54054054054 52.2772129928093  L 571 0.113811058765207  L 629.108108108108 86.4205306223655  L 683.162162162162 20.0307463426729  L 742.621621621622 57.9677659310687  L 798.027027027027 39.9476816265807  L 852.081081081081 93.0595090503347  L 914.243243243243 152.810314902058  L 972.351351351351 135.73865608728  L 1021 64.6067443590379  L 1075.05405405405 0.113811058765207  L 1133.16216216216 33.3087031986115  L 1183.16216216216 111.079593354823  L 1242.62162162162 57.9677659310687  L 1298.02702702703 152.810314902058  L 1358.83783783784 64.6067443590379  L 1421 39.9476816265807  L 1465.59459459459 111.079593354823  L 1518.2972972973 64.6067443590379  L 1577.75675675676 80.7299776841062  L 1637.21621621622 33.3087031986115  " stroke-width="1" stroke="#797979" fill="none" transform="matrix(1 0 0 1 138 3146 )" />
  </g>
</svg>