<?xml version="1.0" encoding="utf-8"?>
<svg version="1.1" xmlns:xlink="http://www.w3.org/1999/xlink" width="12px" height="13px" xmlns="http://www.w3.org/2000/svg">
  <g transform="matrix(1 0 0 1 -4282 -2601 )">
    <path d="M 4288 2601  C 4291.36 2601  4294 2603.86  4294 2607.5  C 4294 2611.14  4291.36 2614  4288 2614  C 4284.64 2614  4282 2611.14  4282 2607.5  C 4282 2603.86  4284.64 2601  4288 2601  Z " fill-rule="nonzero" fill="#000000" stroke="none" />
    <path d="M 4288 2601.5  C 4291.08 2601.5  4293.5 2604.14  4293.5 2607.5  C 4293.5 2610.86  4291.08 2613.5  4288 2613.5  C 4284.92 2613.5  4282.5 2610.86  4282.5 2607.5  C 4282.5 2604.14  4284.92 2601.5  4288 2601.5  Z " stroke-width="1" stroke="#797979" fill="none" />
  </g>
</svg>