<?xml version="1.0" encoding="utf-8"?>
<svg version="1.1" xmlns:xlink="http://www.w3.org/1999/xlink" width="142px" height="203px" xmlns="http://www.w3.org/2000/svg">
  <defs>
    <mask fill="white" id="clip4">
      <path d="M 10 122.117647058823  C -2.94117647058829 118.588235294118  2 98.588235294118  2 98.588235294118  L 2 69.7647058823532  L 23.525044722719 43.4564739157763  L 39.4463327370304 0.967473287240409  L 79.2495527728088 0.967473287240409  L 88.8235294117653 19.7647058823532  L 115.714285714286 16.5714285714289  L 130 43.4564739157763  L 141.904761904762 54.666666666667  L 135.882352941177 74.4705882352941  L 121.764705882353 98.588235294118  L 126.428571428572 128.434475172847  L 107.97619047619 139.785714285714  L 100 150.5  L 100 194.428571428572  L 62.3529411764707 183.294117647059  L 28.2352941176473 202.117647058823  L 20 158  L 20 139.785714285714  C 20 139.785714285714  22.9411764705883 125.647058823529  10 122.117647058823  Z " fill-rule="evenodd" />
    </mask>
  </defs>
  <g transform="matrix(1 0 0 1 -860 -372 )">
    <path d="M 10 122.117647058823  C -2.94117647058829 118.588235294118  2 98.588235294118  2 98.588235294118  L 2 69.7647058823532  L 23.525044722719 43.4564739157763  L 39.4463327370304 0.967473287240409  L 79.2495527728088 0.967473287240409  L 88.8235294117653 19.7647058823532  L 115.714285714286 16.5714285714289  L 130 43.4564739157763  L 141.904761904762 54.666666666667  L 135.882352941177 74.4705882352941  L 121.764705882353 98.588235294118  L 126.428571428572 128.434475172847  L 107.97619047619 139.785714285714  L 100 150.5  L 100 194.428571428572  L 62.3529411764707 183.294117647059  L 28.2352941176473 202.117647058823  L 20 158  L 20 139.785714285714  C 20 139.785714285714  22.9411764705883 125.647058823529  10 122.117647058823  Z " fill-rule="nonzero" fill="#ffffff" stroke="none" transform="matrix(1 0 0 1 860 372 )" />
    <path d="M 10 122.117647058823  C -2.94117647058829 118.588235294118  2 98.588235294118  2 98.588235294118  L 2 69.7647058823532  L 23.525044722719 43.4564739157763  L 39.4463327370304 0.967473287240409  L 79.2495527728088 0.967473287240409  L 88.8235294117653 19.7647058823532  L 115.714285714286 16.5714285714289  L 130 43.4564739157763  L 141.904761904762 54.666666666667  L 135.882352941177 74.4705882352941  L 121.764705882353 98.588235294118  L 126.428571428572 128.434475172847  L 107.97619047619 139.785714285714  L 100 150.5  L 100 194.428571428572  L 62.3529411764707 183.294117647059  L 28.2352941176473 202.117647058823  L 20 158  L 20 139.785714285714  C 20 139.785714285714  22.9411764705883 125.647058823529  10 122.117647058823  Z " stroke-width="2" stroke="#797979" fill="none" transform="matrix(1 0 0 1 860 372 )" mask="url(#clip4)" />
  </g>
</svg>