<?xml version="1.0" encoding="utf-8"?>
<svg version="1.1" xmlns:xlink="http://www.w3.org/1999/xlink" width="12px" height="13px" xmlns="http://www.w3.org/2000/svg">
  <g transform="matrix(1 0 0 1 -1104 -3099 )">
    <path d="M 1110 3099  C 1113.36 3099  1116 3101.86  1116 3105.5  C 1116 3109.14  1113.36 3112  1110 3112  C 1106.64 3112  1104 3109.14  1104 3105.5  C 1104 3101.86  1106.64 3099  1110 3099  Z " fill-rule="nonzero" fill="#7f7f7f" stroke="none" />
    <path d="M 1110 3099.5  C 1113.08 3099.5  1115.5 3102.14  1115.5 3105.5  C 1115.5 3108.86  1113.08 3111.5  1110 3111.5  C 1106.92 3111.5  1104.5 3108.86  1104.5 3105.5  C 1104.5 3102.14  1106.92 3099.5  1110 3099.5  Z " stroke-width="1" stroke="#797979" fill="none" />
  </g>
</svg>