<?xml version="1.0" encoding="utf-8"?>
<svg version="1.1" xmlns:xlink="http://www.w3.org/1999/xlink" width="101px" height="89px" xmlns="http://www.w3.org/2000/svg">
  <g transform="matrix(1 0 0 1 -1551 -249 )">
    <path d="M 75.75 41.3131510416667  C 77.1527777777778 42.0084635416667  77.8541666666667 43.0707465277778  77.8541666666667 44.5  C 77.8541666666667 45.9292534722222  77.1527777777778 46.9915364583333  75.75 47.6868489583333  L 39.9791666666667 66.228515625  C 39.3216145833333 66.576171875  38.6202256944444 66.75  37.875 66.75  C 37.1736111111111 66.75  36.4722222222222 66.5954861111111  35.7708333333333 66.2864583333333  C 34.3680555555556 65.5525173611111  33.6666666666667 64.4709201388889  34 63.0416666666667  L 34 25.9583333333333  C 33.6666666666667 24.5290798611111  34.3680555555556 23.4474826388889  35.7708333333333 22.7135416666667  C 37.2174479166667 22.0182291666667  38.6202256944444 22.0375434027778  39.9791666666667 22.771484375  L 75.75 41.3131510416667  Z M 81.470703125 60.318359375  C 84.6707899305556 55.4898003472222  86.2708333333333 50.2170138888889  86.2708333333333 44.5  C 86.2708333333333 38.7829861111111  84.6707899305556 33.5101996527778  81.470703125 28.681640625  C 78.2706163194445 23.8530815972222  73.9307725694445 20.0288628472222  68.451171875 17.208984375  C 62.9715711805556 14.3891059027778  56.9878472222222 12.9791666666667  50.5 12.9791666666667  C 44.0121527777778 12.9791666666667  38.0284288194444 14.3891059027778  32.548828125 17.208984375  C 27.0692274305556 20.0288628472222  22.7293836805556 23.8530815972222  19.529296875 28.681640625  C 16.3292100694444 33.5101996527778  14.7291666666667 38.7829861111111  14.7291666666667 44.5  C 14.7291666666667 50.2170138888889  16.3292100694444 55.4898003472222  19.529296875 60.318359375  C 22.7293836805556 65.1469184027778  27.0692274305556 68.9711371527778  32.548828125 71.791015625  C 38.0284288194444 74.6108940972222  44.0121527777778 76.0208333333333  50.5 76.0208333333333  C 56.9878472222222 76.0208333333333  62.9715711805556 74.6108940972222  68.451171875 71.791015625  C 73.9307725694445 68.9711371527778  78.2706163194445 65.1469184027778  81.470703125 60.318359375  Z M 94.2272135416667 22.1630859375  C 98.7424045138889 28.9810112847222  101 36.4266493055555  101 44.5  C 101 52.5733506944444  98.7424045138889 60.0189887152778  94.2272135416667 66.8369140625  C 89.7120225694445 73.6548394097222  83.5858289930556 79.0531684027778  75.8486328125 83.0319010416667  C 68.1114366319445 87.0106336805556  59.6618923611111 89  50.5 89  C 41.3381076388889 89  32.8885633680556 87.0106336805556  25.1513671875 83.0319010416667  C 17.4141710069444 79.0531684027778  11.2879774305556 73.6548394097222  6.77278645833333 66.8369140625  C 2.25759548611111 60.0189887152778  0 52.5733506944444  0 44.5  C 0 36.4266493055555  2.25759548611111 28.9810112847222  6.77278645833333 22.1630859375  C 11.2879774305556 15.3451605902778  17.4141710069444 9.94683159722221  25.1513671875 5.96809895833333  C 32.8885633680556 1.98936631944444  41.3381076388889 0  50.5 0  C 59.6618923611111 0  68.1114366319445 1.98936631944444  75.8486328125 5.96809895833333  C 83.5858289930556 9.94683159722221  89.7120225694445 15.3451605902778  94.2272135416667 22.1630859375  Z " fill-rule="nonzero" fill="#d7d7d7" stroke="none" transform="matrix(1 0 0 1 1551 249 )" />
  </g>
</svg>